<?xml version="1.0" encoding="UTF-8"?>
<svg id="Layer_2" data-name="Layer 2" xmlns="http://www.w3.org/2000/svg" xmlns:xlink="http://www.w3.org/1999/xlink" viewBox="0 0 110.21 32.64">
  <defs>
    <style>
      .cls-1 {
        mask: url(#mask-5);
      }

      .cls-2 {
        clip-path: url(#clippath-4);
      }

      .cls-3 {
        fill: url(#linear-gradient-2);
      }

      .cls-4 {
        mask: url(#mask-1);
      }

      .cls-5, .cls-6, .cls-7 {
        fill: #fff;
      }

      .cls-8 {
        mask: url(#mask);
      }

      .cls-6 {
        fill-rule: evenodd;
      }

      .cls-9 {
        fill: url(#linear-gradient-4);
      }

      .cls-10 {
        mask: url(#mask-2);
      }

      .cls-11 {
        fill: url(#linear-gradient-3);
      }

      .cls-12 {
        clip-path: url(#clippath-1);
      }

      .cls-13 {
        fill: url(#linear-gradient-5);
      }

      .cls-14 {
        clip-path: url(#clippath-3);
      }

      .cls-15 {
        fill: #2b1020;
      }

      .cls-7 {
        clip-rule: evenodd;
      }

      .cls-16 {
        fill: url(#linear-gradient-6);
      }

      .cls-17 {
        clip-path: url(#clippath-2);
      }

      .cls-18 {
        mask: url(#mask-4);
      }

      .cls-19 {
        fill: url(#linear-gradient);
      }

      .cls-20 {
        clip-path: url(#clippath);
      }

      .cls-21 {
        mask: url(#mask-3);
      }
    </style>
    <clipPath id="clippath">
      <polygon class="cls-7" points="85.94 31.44 103.62 7.2 110.21 15.9 98.54 31.44 85.94 31.44"/>
    </clipPath>
    <linearGradient id="linear-gradient" x1="-240.93" y1="337.01" x2="-219.69" y2="327.25" gradientTransform="translate(326.71 -313.25)" gradientUnits="userSpaceOnUse">
      <stop offset="0" stop-color="#fff"/>
      <stop offset="1" stop-color="#000"/>
    </linearGradient>
    <mask id="mask" x="95.54" y="7.2" width="14.67" height="17.4" maskUnits="userSpaceOnUse">
      <rect class="cls-19" x="95.54" y="7.2" width="14.67" height="17.4"/>
    </mask>
    <clipPath id="clippath-1">
      <polygon class="cls-7" points="85.94 .36 103.62 24.6 110.21 15.9 98.54 .36 85.94 .36"/>
    </clipPath>
    <linearGradient id="linear-gradient-2" x1="-167.26" y1="346.5" x2="-208.19" y2="358.71" gradientTransform="translate(290.65 -345.93)" xlink:href="#linear-gradient"/>
    <mask id="mask-1" x="85.94" y=".36" width="24.27" height="15.54" maskUnits="userSpaceOnUse">
      <rect class="cls-3" x="85.94" y=".36" width="24.27" height="15.54"/>
    </mask>
    <clipPath id="clippath-2">
      <polygon class="cls-7" points="69.31 31.44 86.99 7.2 93.58 15.9 81.91 31.44 69.31 31.44"/>
    </clipPath>
    <linearGradient id="linear-gradient-3" x1="-176.77" y1="327.32" x2="-186.57" y2="334.86" gradientTransform="translate(265.57 -313.25)" xlink:href="#linear-gradient"/>
    <mask id="mask-2" x="79.26" y="7.2" width="14.32" height="17.4" maskUnits="userSpaceOnUse">
      <rect class="cls-11" x="79.26" y="7.2" width="14.32" height="17.4"/>
    </mask>
    <linearGradient id="linear-gradient-4" x1="-112.67" y1="329.87" x2="-155.35" y2="360.13" gradientTransform="translate(228.22 -345.93)" xlink:href="#linear-gradient"/>
    <mask id="mask-3" x="69.31" y=".36" width="24.27" height="15.54" maskUnits="userSpaceOnUse">
      <rect class="cls-9" x="69.31" y=".36" width="24.27" height="15.54"/>
    </mask>
    <clipPath id="clippath-3">
      <polygon class="cls-7" points="69.31 31.44 86.99 7.2 93.58 15.9 81.91 31.44 69.31 31.44"/>
    </clipPath>
    <linearGradient id="linear-gradient-5" x1="-257.56" x2="-236.32" xlink:href="#linear-gradient"/>
    <mask id="mask-4" x="78.91" y="7.2" width="14.67" height="17.4" maskUnits="userSpaceOnUse">
      <rect class="cls-13" x="78.91" y="7.2" width="14.67" height="17.4"/>
    </mask>
    <clipPath id="clippath-4">
      <polygon class="cls-7" points="69.31 .36 86.99 24.6 93.58 15.9 81.91 .36 69.31 .36"/>
    </clipPath>
    <linearGradient id="linear-gradient-6" x1="-183.89" y1="346.5" x2="-224.82" y2="358.71" gradientTransform="translate(290.65 -345.93)" xlink:href="#linear-gradient"/>
    <mask id="mask-5" x="69.31" y=".36" width="24.27" height="15.54" maskUnits="userSpaceOnUse">
      <rect class="cls-16" x="69.31" y=".36" width="24.27" height="15.54"/>
    </mask>
  </defs>
  <g id="OBJECTS">
    <g>
      <g>
        <path class="cls-5" d="M4.66,29.24c-.91,0-1.67-.12-2.28-.35s-1.07-.59-1.37-1.08c-.3-.48-.46-1.1-.46-1.84,0-.25.02-.51.05-.8.03-.29.07-.57.12-.84.05-.27.09-.51.12-.71s.06-.34.07-.41l1.05.21c-.03.16-.07.39-.12.68-.05.29-.1.59-.15.92-.05.33-.07.64-.07.94,0,.38.05.71.16.98.11.28.28.5.51.68.24.18.55.31.93.39.39.08.86.12,1.43.12h4.57l-.5.45v-10.37h1.08v11.01h-5.15ZM3.82,23.93v-.81h2.73v.81h-2.73ZM4.54,23.93c-.15-.2-.26-.4-.34-.6-.08-.19-.12-.4-.12-.61,0-.3.07-.56.2-.8.13-.24.31-.42.53-.55.22-.13.46-.2.72-.2.15,0,.29.02.44.07.15.05.28.11.39.19l-.36.69c-.07-.05-.15-.08-.21-.1-.07-.02-.14-.02-.21-.02-.21,0-.38.07-.5.2-.12.13-.19.31-.19.52,0,.13.03.26.08.38.05.12.13.26.23.4l-.65.43Z"/>
        <path class="cls-5" d="M15.32,32.64c-.32,0-.67-.03-1.03-.08s-.76-.14-1.2-.24l.17-.97c.49.07.9.12,1.23.15.33.03.61.05.84.05.77,0,1.32-.16,1.67-.48s.53-.79.53-1.41v-7.4l.55.4h-2.34c-.54,0-.95.07-1.24.21s-.49.41-.6.81c-.11.39-.17.97-.17,1.73s.06,1.33.17,1.73c.11.39.31.66.6.81.29.14.7.21,1.24.21h1.79v1.09h-1.79c-.8,0-1.43-.14-1.88-.41-.45-.27-.76-.69-.94-1.26-.18-.57-.27-1.29-.27-2.17s.09-1.6.27-2.17c.18-.57.49-.99.94-1.26.45-.27,1.07-.41,1.88-.41h2.87v8.08c0,.63-.13,1.18-.39,1.63-.26.45-.64.79-1.13,1.02-.49.23-1.07.35-1.76.35ZM18.6,29.24v-1.09h1.49v1.09h-1.49ZM20.1,29.24v-1.09c.06,0,.1.01.14.04s.06.06.08.11c.02.05.03.1.04.17,0,.07.01.14.01.22s0,.16-.01.23-.02.13-.04.18c-.02.05-.05.08-.08.11s-.08.04-.14.04Z"/>
        <path class="cls-5" d="M20.1,29.24c-.06,0-.1-.01-.14-.04-.04-.03-.06-.06-.08-.11-.02-.05-.03-.11-.04-.18,0-.07-.01-.15-.01-.23,0-.11,0-.21.02-.28.01-.08.04-.14.08-.18.04-.05.1-.07.17-.07v1.09ZM20.1,29.24v-1.09h3.46v1.09h-3.46ZM23.56,29.24v-1.09c.06,0,.1.01.14.04.04.03.06.06.08.11.02.05.03.1.04.17,0,.07.01.14.01.22s0,.16-.01.23c0,.07-.02.13-.04.18-.02.05-.05.08-.08.11-.04.03-.08.04-.14.04Z"/>
        <path class="cls-5" d="M23.56,29.24c-.06,0-.1-.01-.14-.04-.04-.03-.06-.06-.08-.11-.02-.05-.03-.11-.04-.18,0-.07-.01-.15-.01-.23,0-.11,0-.21.02-.28.01-.08.04-.14.08-.18.04-.05.1-.07.17-.07v1.09ZM23.56,29.24v-1.09h6.99l-.72.69v-6.71l.57.52h-2.35c-.54,0-.95.07-1.24.21s-.49.41-.6.81c-.11.39-.17.97-.17,1.73s.06,1.33.17,1.73c.11.39.31.66.6.81.29.14.7.21,1.24.21v.78c-.8,0-1.43-.11-1.88-.33-.45-.22-.76-.59-.94-1.11-.18-.52-.27-1.22-.27-2.1s.09-1.6.27-2.17c.18-.57.49-.99.94-1.26.45-.27,1.07-.41,1.88-.41h2.86v7.68h-7.35ZM27.71,20.18v-1.38h1.08v1.38h-1.08ZM30.91,29.24v-1.09h1.49v1.09h-1.49ZM32.4,29.24v-1.09c.06,0,.1.01.14.04.04.03.06.06.08.11.02.05.03.1.04.17,0,.07.01.14.01.22s0,.16-.01.23-.02.13-.04.18c-.02.05-.05.08-.08.11-.04.03-.08.04-.14.04Z"/>
        <path class="cls-5" d="M32.4,29.24c-.06,0-.1-.01-.14-.04-.04-.03-.06-.06-.08-.11-.02-.05-.03-.11-.04-.18,0-.07-.01-.15-.01-.23,0-.11,0-.21.02-.28.01-.08.04-.14.08-.18.04-.05.1-.07.17-.07v1.09ZM32.4,29.24v-1.09h1.99l-.5.45v-7.03h1.08v7.68h-2.57ZM32.95,32.01v-1.38h1.08v1.38h-1.08ZM34.85,32.01v-1.38h1.08v1.38h-1.08Z"/>
        <path class="cls-5" d="M37.9,29.24v-1.09h5.16l-.89.88v-3.35c0-.76-.08-1.36-.24-1.8s-.41-.76-.77-.94c-.36-.19-.83-.28-1.43-.28h-1.12v-1.09h1.12c.74,0,1.37.13,1.9.38s.93.68,1.2,1.28c.28.6.42,1.42.42,2.45v3.56h-5.36ZM43.25,29.24v-1.09h1.49v1.09h-1.49ZM44.75,29.24v-1.09c.06,0,.1.01.14.04.04.03.06.06.08.11.02.05.03.1.04.17,0,.07.01.14.01.22s0,.16-.01.23-.02.13-.04.18c-.02.05-.05.08-.08.11-.04.03-.08.04-.14.04Z"/>
        <path class="cls-5" d="M44.75,29.24c-.06,0-.1-.01-.14-.04-.04-.03-.06-.06-.08-.11-.02-.05-.03-.11-.04-.18,0-.07-.01-.15-.01-.23,0-.11,0-.21.02-.28.01-.08.04-.14.08-.18.04-.05.1-.07.17-.07v1.09ZM44.75,29.24v-1.09h1.99l-.5.45v-7.03h1.08v7.68h-2.57ZM46.24,20.18v-1.38h1.08v1.38h-1.08Z"/>
        <path class="cls-5" d="M52.91,32.64c-.32,0-.67-.03-1.03-.08s-.76-.14-1.2-.24l.17-.97c.49.07.9.12,1.23.15.33.03.61.05.84.05.77,0,1.32-.16,1.67-.48s.53-.79.53-1.41v-7.4l.55.4h-2.34c-.54,0-.95.07-1.24.21s-.49.41-.6.81c-.11.39-.17.97-.17,1.73s.06,1.33.17,1.73c.11.39.31.66.6.81.29.14.7.21,1.24.21h1.79v1.09h-1.79c-.8,0-1.43-.14-1.88-.41-.45-.27-.76-.69-.94-1.26-.18-.57-.27-1.29-.27-2.17s.09-1.6.27-2.17c.18-.57.49-.99.94-1.26.45-.27,1.07-.41,1.88-.41h2.87v8.08c0,.63-.13,1.18-.39,1.63-.26.45-.64.79-1.13,1.02-.49.23-1.07.35-1.76.35Z"/>
        <path class="cls-5" d="M58.98,17.22v-.81h2.73v.81h-2.73ZM59.69,17.22c-.15-.2-.26-.4-.34-.6-.08-.19-.12-.4-.12-.61,0-.3.07-.56.2-.8.13-.24.31-.42.53-.55s.46-.2.72-.2c.15,0,.3.02.44.07.15.05.28.11.39.19l-.36.69c-.07-.05-.15-.08-.21-.1s-.14-.02-.21-.02c-.21,0-.38.07-.51.2-.12.13-.19.31-.19.52,0,.13.03.26.08.38.05.12.13.26.23.4l-.65.43ZM59.81,29.24v-11.01h1.07v11.01h-1.07Z"/>
      </g>
      <g>
        <path class="cls-5" d="M4.46,12.67c-1.07,0-1.93-.2-2.59-.61-.65-.41-1.13-1.04-1.43-1.88-.3-.84-.45-1.92-.45-3.21s.15-2.39.44-3.24c.29-.85.77-1.48,1.43-1.9.66-.42,1.52-.63,2.59-.63s1.95.21,2.6.63c.65.42,1.13,1.05,1.42,1.9.29.85.44,1.93.44,3.24s-.15,2.38-.44,3.23c-.29.84-.77,1.47-1.41,1.87s-1.52.6-2.61.6ZM4.46,10.29c.52,0,.91-.13,1.16-.38.26-.25.43-.62.52-1.11s.13-1.1.13-1.83-.04-1.35-.13-1.85c-.09-.5-.26-.88-.52-1.14-.26-.26-.64-.38-1.16-.38s-.88.13-1.14.38c-.26.26-.43.63-.52,1.14-.09.5-.13,1.12-.13,1.85s.04,1.31.13,1.81c.09.5.26.87.52,1.13.26.26.64.38,1.15.38Z"/>
        <path class="cls-5" d="M10.09,12.48V1.41h2.95l2.83,6.28h.24V1.41h2.62v11.07h-2.95l-2.81-6.47h-.25v6.47h-2.62Z"/>
        <path class="cls-5" d="M20.17,12.48V1.41h3.98c.82,0,1.51.11,2.08.34.57.23,1.03.57,1.38,1.02.35.45.6,1.01.76,1.68.16.67.24,1.44.24,2.31s-.07,1.67-.22,2.37-.39,1.3-.72,1.8c-.33.5-.78.88-1.34,1.14-.56.26-1.25.39-2.06.39h-4.08ZM22.79,10.07h1.27c.41,0,.74-.08.99-.25.25-.16.44-.39.57-.69.13-.29.21-.64.25-1.05.04-.4.06-.84.06-1.32s-.02-.87-.07-1.23c-.05-.36-.14-.68-.27-.94-.13-.26-.31-.46-.56-.59-.25-.13-.57-.2-.97-.2h-1.27v6.26Z"/>
        <path class="cls-5" d="M29.74,12.48V1.41h6.98v2.35h-4.36v1.96h3.48v2.34h-3.48v2.06h4.36v2.35h-6.98Z"/>
        <path class="cls-5" d="M37.85,12.48V1.41h6.76v2.4h-4.14v2.68h3.3v2.4h-3.3v3.58h-2.62Z"/>
        <path class="cls-5" d="M49.74,12.67c-1.07,0-1.93-.2-2.59-.61-.65-.41-1.13-1.04-1.43-1.88-.3-.84-.45-1.92-.45-3.21s.15-2.39.44-3.24c.29-.85.77-1.48,1.43-1.9.66-.42,1.52-.63,2.59-.63s1.95.21,2.6.63c.65.42,1.13,1.05,1.42,1.9.29.85.44,1.93.44,3.24s-.15,2.38-.44,3.23c-.29.84-.77,1.47-1.41,1.87s-1.52.6-2.61.6ZM49.74,10.29c.52,0,.91-.13,1.16-.38.26-.25.43-.62.52-1.11s.13-1.1.13-1.83-.04-1.35-.13-1.85c-.09-.5-.26-.88-.52-1.14-.26-.26-.64-.38-1.16-.38s-.88.13-1.14.38c-.26.26-.43.63-.52,1.14-.09.5-.13,1.12-.13,1.85s.04,1.31.13,1.81c.09.5.26.87.52,1.13.26.26.64.38,1.15.38Z"/>
        <path class="cls-5" d="M59.17,12.67c-.8,0-1.45-.1-1.97-.31s-.93-.54-1.24-.99c-.3-.45-.52-1.04-.65-1.77-.13-.73-.19-1.62-.19-2.66s.06-1.93.19-2.66c.13-.72.34-1.31.65-1.77s.72-.78,1.26-1c.54-.21,1.22-.32,2.04-.32.3,0,.64.02.99.07.36.04.71.1,1.05.16s.64.13.9.2l-.07,2.27c-.18-.03-.41-.07-.69-.1-.28-.03-.57-.06-.87-.08-.3-.02-.58-.03-.83-.03-.4,0-.73.05-.99.16-.26.1-.46.28-.6.52-.14.25-.24.57-.29.99-.05.41-.07.94-.07,1.59s.02,1.16.07,1.58c.05.42.14.75.29,1,.14.25.34.42.6.52.26.1.59.16.99.16s.83-.02,1.29-.05c.46-.03.83-.07,1.13-.11l.04,2.26c-.23.05-.51.11-.84.18s-.69.12-1.08.16c-.38.04-.76.06-1.12.06Z"/>
      </g>
      <g>
        <g>
          <g>
            <polygon class="cls-6" points="85.94 31.44 103.62 7.2 110.21 15.9 98.54 31.44 85.94 31.44"/>
            <g class="cls-20">
              <rect class="cls-5" x="85.94" y="7.2" width="24.27" height="24.24"/>
            </g>
          </g>
          <g class="cls-8">
            <polygon class="cls-6" points="95.54 18.27 103.62 24.6 110.21 15.9 103.62 7.2 95.54 18.27"/>
          </g>
          <g>
            <polygon class="cls-6" points="85.94 .36 103.62 24.6 110.21 15.9 98.54 .36 85.94 .36"/>
            <g class="cls-12">
              <rect class="cls-5" x="85.94" y=".36" width="24.27" height="24.24"/>
            </g>
          </g>
          <g class="cls-4">
            <polygon class="cls-6" points="85.94 .36 110.21 15.9 98.54 .36 85.94 .36"/>
          </g>
        </g>
        <g>
          <g>
            <polygon class="cls-6" points="69.31 31.44 86.99 7.2 93.58 15.9 81.91 31.44 69.31 31.44"/>
            <g class="cls-17">
              <rect class="cls-5" x="69.31" y="7.2" width="24.27" height="24.24"/>
            </g>
          </g>
          <g class="cls-10">
            <polygon class="cls-6" points="79.26 17.94 86.99 24.6 93.58 15.9 86.99 7.2 79.26 17.94"/>
          </g>
          <g class="cls-21">
            <polygon class="cls-6" points="69.31 .36 93.58 15.9 81.91 .36 69.31 .36"/>
          </g>
          <g>
            <g>
              <polygon class="cls-6" points="69.31 31.44 86.99 7.2 93.58 15.9 81.91 31.44 69.31 31.44"/>
              <g class="cls-14">
                <rect class="cls-5" x="69.31" y="7.2" width="24.27" height="24.24"/>
              </g>
            </g>
            <g class="cls-18">
              <polygon class="cls-6" points="78.91 18.27 86.99 24.6 93.58 15.9 86.99 7.2 78.91 18.27"/>
            </g>
            <g>
              <polygon class="cls-6" points="69.31 .36 86.99 24.6 93.58 15.9 81.91 .36 69.31 .36"/>
              <g class="cls-2">
                <rect class="cls-5" x="69.31" y=".36" width="24.27" height="24.24"/>
              </g>
            </g>
            <g class="cls-1">
              <polygon class="cls-6" points="69.31 .36 93.58 15.9 81.91 .36 69.31 .36"/>
            </g>
          </g>
        </g>
        <rect class="cls-15" x="69.31" y="1.85" width="14.75" height=".67"/>
        <rect class="cls-15" x="69.11" y=".64" width="14.75" height=".67"/>
        <rect class="cls-15" x="69.86" y="3.05" width="14.75" height=".67"/>
        <rect class="cls-15" x="70.51" y="4.28" width="15.74" height=".67"/>
        <rect class="cls-15" x="71.71" y="5.51" width="14.75" height=".67"/>
        <rect class="cls-15" x="72.25" y="6.72" width="16.24" height=".67"/>
        <rect class="cls-15" x="72.9" y="7.95" width="16.19" height=".67"/>
        <rect class="cls-15" x="74.17" y="9.17" width="15.6" height=".67"/>
        <rect class="cls-15" x="74.72" y="10.38" width="16" height=".67"/>
        <rect class="cls-15" x="75.36" y="11.61" width="15.85" height=".67"/>
        <rect class="cls-15" x="76.68" y="12.84" width="15.85" height=".67"/>
        <rect class="cls-15" x="77.13" y="14.07" width="15.85" height=".67"/>
        <rect class="cls-15" x="78.32" y="15.3" width="15.85" height=".67"/>
        <g>
          <path class="cls-15" d="M101.23,8.56c-.31,0-.6-.12-.82-.34-.22-.22-.34-.51-.34-.82s.12-.6.34-.82c.22-.22.51-.34.82-.34s.6.12.82.34c.45.45.45,1.19,0,1.64-.22.22-.51.34-.82.34Z"/>
          <path class="cls-15" d="M94.92,2.37c-.31,0-.6-.12-.82-.34-.22-.22-.34-.51-.34-.82s.12-.6.34-.82c.22-.22.51-.34.82-.34s.6.12.82.34c.22.22.34.51.34.82s-.12.6-.34.82c-.22.22-.51.34-.82.34Z"/>
          <path class="cls-15" d="M101.17,2.34c-.31,0-.6-.12-.82-.34-.45-.45-.45-1.19,0-1.64.22-.22.51-.34.82-.34s.6.12.82.34c.45.45.45,1.19,0,1.64-.22.22-.51.34-.82.34Z"/>
          <path class="cls-15" d="M94.95,8.56c-.31,0-.6-.12-.82-.34-.22-.22-.34-.51-.34-.82,0-.31.12-.6.34-.82.05-.05.1-.09.16-.13.02-.01.04-.02.06-.04.04-.02.09-.05.13-.07.02,0,.04-.02.07-.03.04-.02.09-.03.14-.04.01,0,.02,0,.03,0,0,0,.01,0,.02,0l.26-.02s.07,0,.11.01h.01s.02,0,.03,0h.01s.01,0,.01,0h.01s.04,0,.06,0c.45,0,.88-.19,1.21-.52.32-.33.5-.77.48-1.21h0s0-.03,0-.03c0-.01,0-.02,0-.04,0-.01,0-.03,0-.04v-.03s0-.04,0-.07l.02-.26s0-.01,0-.02v-.02s.03-.1.05-.15c0-.03.02-.05.03-.07.02-.05.04-.09.07-.13.01-.02.02-.04.03-.05.05-.07.09-.12.13-.16.22-.22.51-.34.82-.34s.6.12.82.34c.45.45.45,1.19,0,1.64-.05.05-.1.09-.16.13-.02.01-.04.02-.06.03-.04.02-.08.05-.13.07-.02.01-.05.02-.07.03-.04.02-.09.03-.14.04h-.03s-.01.01-.02.01l-.26.02s-.06,0-.1,0h-.02s-.02,0-.03,0h0s-.01,0-.01,0h-.01s-.04,0-.06,0c-.45,0-.88.19-1.21.52-.32.33-.5.77-.48,1.22h0s0,.03,0,.03c0,.01,0,.02,0,.04,0,.01,0,.03,0,.04,0,0,0,.02,0,.04,0,.02,0,.04,0,.05h0s-.02.25-.02.25c0,0,0,.03-.01.04-.01.05-.03.1-.04.14,0,.02-.02.04-.03.07-.02.04-.04.09-.07.13-.01.02-.02.04-.04.06-.04.06-.09.12-.13.16-.22.22-.51.34-.82.34h0Z"/>
          <path class="cls-15" d="M98.09,8.56c-.31,0-.6-.12-.82-.34-.22-.22-.34-.51-.34-.82,0-.31.12-.6.34-.82.04-.04.1-.09.16-.13.02-.01.04-.02.06-.03.04-.03.08-.05.13-.07.02-.01.04-.02.07-.03.04-.02.09-.03.14-.04,0,0,.04-.01.05-.01l.26-.02s.06,0,.1.01h.02s.02,0,.03,0c0,0,0,0,.01,0h0s.01,0,.01,0c.02,0,.04,0,.06,0,.44,0,.88-.19,1.2-.52.32-.33.5-.77.48-1.21v-.05s0,0,0,0c0,0,0,0,0,0,0-.01,0-.03,0-.04v-.04s0-.04-.01-.06l.02-.25s.01-.04.01-.05c.01-.06.03-.1.04-.14,0-.02.02-.04.03-.07.02-.04.04-.08.07-.13h0s.02-.04.03-.05c.05-.07.09-.12.13-.17.22-.22.51-.34.82-.34s.6.12.82.34c.45.45.45,1.19,0,1.64-.04.04-.1.09-.16.13-.01,0-.03.02-.04.02h-.02s-.08.06-.12.08c-.02.01-.05.02-.07.03-.04.02-.09.03-.14.04-.01,0-.02,0-.03,0,0,0-.01,0-.02,0l-.26.02s-.08,0-.12-.01c-.01,0-.02,0-.03,0,0,0,0,0-.01,0h-.02s-.04,0-.06,0c-.44,0-.88.19-1.2.52-.32.33-.5.77-.48,1.22h0s0,.03,0,.03c0,.01,0,.03,0,.04,0,.01,0,.03,0,.04,0,.01,0,.02,0,.04,0,.02,0,.04,0,.06l-.02.25s-.01.04-.01.04c-.01.05-.03.1-.04.15,0,.02-.02.04-.03.06h0s-.04.09-.06.13c-.01.02-.02.04-.04.06-.05.07-.09.12-.13.16-.22.22-.51.34-.82.34h0Z"/>
          <path class="cls-15" d="M94.95,5.43c-.31,0-.6-.12-.82-.34-.22-.22-.34-.51-.34-.82,0-.31.12-.6.34-.82.04-.04.1-.09.16-.13.02-.01.04-.02.06-.04.04-.02.08-.05.12-.07.02-.01.04-.02.07-.03.04-.02.09-.03.14-.04h.03s.01-.01.02-.01l.26-.02s.07,0,.11.01h0s.02,0,.03,0c0,0,0,0,.01,0h.01s.01,0,.01,0c.02,0,.04,0,.06,0,.44,0,.88-.19,1.2-.52.32-.33.5-.77.48-1.22h0s0-.03,0-.03c0-.01,0-.03,0-.04,0-.01,0-.02,0-.04v-.04s0-.04,0-.06l.02-.24h0s.01-.05.01-.05c.01-.06.03-.11.04-.15,0-.02.02-.04.03-.07.02-.04.04-.08.07-.13h0s.02-.04.03-.06c.05-.07.09-.12.13-.16.22-.22.51-.34.82-.34s.6.12.82.34c.45.45.45,1.19,0,1.64-.04.04-.1.09-.16.13-.02.01-.03.02-.05.03h0s-.08.05-.12.07c-.02.01-.05.02-.07.03-.04.02-.09.03-.14.04-.01,0-.02,0-.03,0,0,0-.01,0-.02,0l-.26.02s-.07,0-.1-.01h-.02s-.02,0-.03,0c0,0,0,0-.01,0h0s-.01,0-.01,0c-.02,0-.04,0-.06,0-.44,0-.88.19-1.2.52-.32.33-.5.77-.48,1.22h0s0,.03,0,.03c0,.01,0,.03,0,.04,0,.01,0,.03,0,.04,0,.01,0,.02,0,.04,0,.02,0,.04,0,.06l-.02.25s0,.01,0,.02v.02c-.02.06-.03.1-.05.15,0,.02-.02.04-.03.07-.02.04-.04.08-.07.12-.01.02-.02.04-.04.06-.05.07-.09.12-.13.16-.22.22-.51.34-.82.34h0Z"/>
        </g>
      </g>
      <rect class="cls-5" x="66.67" y="2.71" width=".08" height="26.53"/>
    </g>
  </g>
</svg>