<?xml version="1.0" encoding="UTF-8"?>
<svg id="Layer_2" data-name="Layer 2" xmlns="http://www.w3.org/2000/svg" xmlns:xlink="http://www.w3.org/1999/xlink" viewBox="0 0 24.27 31.08">
  <defs>
    <style>
      .cls-1 {
        fill: #6d264c;
      }

      .cls-1, .cls-2 {
        fill-rule: evenodd;
      }

      .cls-3 {
        fill: #5e203e;
      }

      .cls-4 {
        mask: url(#mask-1);
      }

      .cls-5 {
        mask: url(#mask);
      }

      .cls-6 {
        fill: url(#linear-gradient-4);
      }

      .cls-7 {
        fill: url(#linear-gradient-3);
      }

      .cls-8 {
        clip-path: url(#clippath-1);
      }

      .cls-2 {
        fill: url(#linear-gradient-2);
      }

      .cls-9 {
        clip-rule: evenodd;
        fill: none;
      }

      .cls-10 {
        fill: url(#linear-gradient);
      }

      .cls-11 {
        clip-path: url(#clippath);
      }
    </style>
    <clipPath id="clippath">
      <polygon class="cls-9" points="0 31.08 17.68 6.84 24.27 15.54 12.6 31.08 0 31.08"/>
    </clipPath>
    <linearGradient id="linear-gradient" x1="-326.87" y1="336.65" x2="-305.63" y2="326.89" gradientTransform="translate(326.71 -313.25)" gradientUnits="userSpaceOnUse">
      <stop offset="0" stop-color="#fff"/>
      <stop offset="1" stop-color="#000"/>
    </linearGradient>
    <mask id="mask" x="9.6" y="6.84" width="14.67" height="17.4" maskUnits="userSpaceOnUse">
      <rect class="cls-10" x="9.6" y="6.84" width="14.67" height="17.4"/>
    </mask>
    <linearGradient id="linear-gradient-2" x1="9.6" y1="15.54" x2="24.27" y2="15.54" gradientUnits="userSpaceOnUse">
      <stop offset="0" stop-color="#2b1020"/>
      <stop offset="1" stop-color="#5e203e"/>
    </linearGradient>
    <clipPath id="clippath-1">
      <polygon class="cls-9" points="0 0 17.68 24.24 24.27 15.54 12.6 0 0 0"/>
    </clipPath>
    <linearGradient id="linear-gradient-3" x1="1.35" y1=".29" x2="20.56" y2="21.37" xlink:href="#linear-gradient-2"/>
    <linearGradient id="linear-gradient-4" x1="-253.2" y1="346.15" x2="-294.13" y2="358.35" gradientTransform="translate(290.65 -345.93)" xlink:href="#linear-gradient"/>
    <mask id="mask-1" x="0" y="0" width="24.27" height="15.54" maskUnits="userSpaceOnUse">
      <rect class="cls-6" width="24.27" height="15.54"/>
    </mask>
  </defs>
  <g id="OBJECTS">
    <g>
      <g class="cls-11">
        <rect class="cls-3" y="6.84" width="24.27" height="24.24"/>
      </g>
      <g class="cls-5">
        <polygon class="cls-2" points="9.6 17.92 17.68 24.24 24.27 15.54 17.68 6.84 9.6 17.92"/>
      </g>
      <g class="cls-8">
        <rect class="cls-7" width="24.27" height="24.24"/>
      </g>
      <g class="cls-4">
        <polygon class="cls-1" points="0 0 24.27 15.54 12.6 0 0 0"/>
      </g>
    </g>
  </g>
</svg>