<?xml version="1.0" encoding="UTF-8"?>
<svg id="Layer_2" data-name="Layer 2" xmlns="http://www.w3.org/2000/svg" viewBox="0 0 15.71 15.6">
  <defs>
    <style>
      .cls-1 {
        fill: #fff;
      }
    </style>
  </defs>
  <g id="OBJECTS">
    <g>
      <path class="cls-1" d="M13.6,15.6c-.57,0-1.1-.22-1.5-.62-.4-.4-.62-.93-.62-1.5s.22-1.1.62-1.49c.4-.4.93-.62,1.5-.62s1.1.22,1.49.62c.82.82.82,2.17,0,2.99-.4.4-.93.62-1.49.62Z"/>
      <path class="cls-1" d="M2.12,4.33c-.57,0-1.1-.22-1.5-.62-.4-.4-.62-.93-.62-1.49S.22,1.12.62.72C1.02.32,1.55.1,2.12.1s1.1.22,1.49.62c.4.4.62.93.62,1.5s-.22,1.1-.62,1.5c-.4.4-.93.62-1.49.62Z"/>
      <path class="cls-1" d="M13.51,4.26c-.57,0-1.1-.22-1.5-.62-.82-.82-.82-2.17,0-2.99.4-.4.93-.62,1.5-.62s1.1.22,1.5.62c.82.82.82,2.17,0,2.99-.4.4-.93.62-1.49.62Z"/>
      <path class="cls-1" d="M2.17,15.6c-.57,0-1.1-.22-1.5-.62-.4-.4-.62-.93-.62-1.5,0-.56.22-1.1.62-1.5.08-.08.18-.16.3-.24.04-.03.07-.05.1-.07.08-.04.16-.09.23-.12.04-.02.08-.04.12-.05.08-.03.16-.05.26-.08.02,0,.04,0,.05-.01.01,0,.02,0,.03,0l.47-.03c.06,0,.12.01.19.02h.03s.04,0,.06,0h.02s.02,0,.02,0h.02s.07,0,.1,0c.81,0,1.61-.35,2.2-.95.58-.6.9-1.41.88-2.21v-.02s0-.02,0-.02c0-.02,0-.05,0-.07,0-.03,0-.05,0-.08v-.05s-.01-.08-.02-.12l.04-.47s0-.02,0-.03v-.03c.03-.09.05-.18.09-.27.02-.05.03-.09.05-.12.04-.08.08-.16.12-.23.02-.03.04-.07.06-.1.09-.12.16-.22.24-.3.4-.4.93-.62,1.5-.62s1.1.22,1.5.62c.82.82.82,2.17,0,2.99-.08.08-.18.16-.3.24-.04.02-.07.04-.1.06-.08.05-.15.09-.23.12-.04.02-.08.04-.12.05-.08.03-.17.06-.26.08h-.05s-.02.02-.03.02l-.48.03c-.06,0-.11,0-.18-.02h-.04s-.04,0-.06-.01h-.02s-.02,0-.02,0h-.02s-.07,0-.1,0c-.81,0-1.61.35-2.2.95-.58.6-.9,1.41-.88,2.21v.02s0,.02,0,.02c0,.02,0,.05,0,.07,0,.03,0,.05,0,.08,0,.02,0,.05,0,.07,0,.03,0,.06,0,.1h0s-.03.46-.03.46c0,0-.02.06-.02.08-.02.1-.05.18-.08.26-.02.04-.03.08-.05.12-.04.08-.08.16-.12.24-.02.03-.04.07-.07.11-.08.11-.16.21-.24.29-.4.4-.93.62-1.49.62h0Z"/>
      <path class="cls-1" d="M7.88,15.6c-.57,0-1.1-.22-1.5-.62-.4-.4-.62-.93-.62-1.49,0-.56.22-1.1.62-1.49.08-.08.17-.16.3-.24.03-.02.07-.04.1-.06.08-.05.15-.09.23-.12.04-.02.08-.04.12-.05.08-.03.16-.05.25-.07,0,0,.07-.02.08-.02l.48-.04c.06,0,.12.01.18.02h.04s.04,0,.06,0c0,0,.02,0,.02,0h.02s.02,0,.02,0c.04,0,.07,0,.11,0,.81,0,1.61-.35,2.19-.95.58-.6.9-1.41.88-2.21v-.1s-.01-.01-.01-.01c0,0,0,0,0-.01,0-.02,0-.05,0-.07v-.07s-.02-.07-.02-.11l.03-.46s.02-.07.02-.08c.03-.11.05-.19.08-.26.02-.04.03-.08.05-.12.03-.07.07-.15.12-.23v-.02s.04-.06.06-.08c.09-.13.16-.22.24-.3.4-.4.93-.62,1.5-.62s1.1.22,1.49.62c.82.82.82,2.17,0,2.99-.08.08-.18.16-.3.24-.02.02-.05.03-.07.04l-.04.02c-.07.04-.15.08-.22.12-.04.02-.08.04-.12.05-.07.03-.16.05-.26.08-.02,0-.04.01-.05.02-.01,0-.02,0-.03,0l-.47.03c-.07,0-.14-.01-.22-.02-.02,0-.04,0-.06,0,0,0-.01,0-.02,0h-.04s-.07,0-.1,0c-.81,0-1.61.35-2.19.95-.58.6-.9,1.41-.88,2.21v.02s0,.02,0,.02c0,.02,0,.05,0,.07,0,.02,0,.05,0,.07,0,.02,0,.05,0,.07,0,.04,0,.07,0,.11l-.03.46s-.02.07-.02.07c-.02.1-.05.18-.08.27-.01.04-.03.07-.05.11h0c-.04.09-.07.16-.12.24-.02.04-.04.07-.07.1-.08.12-.16.22-.24.3-.4.4-.93.62-1.49.62h0Z"/>
      <path class="cls-1" d="M2.17,9.89c-.57,0-1.1-.22-1.5-.62-.4-.4-.62-.93-.62-1.5,0-.56.22-1.09.62-1.49.08-.08.18-.16.3-.24.03-.02.07-.04.1-.07.07-.04.15-.08.23-.12.04-.02.08-.04.12-.05.08-.03.16-.05.25-.07l.05-.02s.02,0,.03,0l.48-.03c.06,0,.13.01.2.02h.01s.04,0,.06,0c0,0,.01,0,.02,0h.02s.02,0,.02,0c.04,0,.07,0,.11,0,.81,0,1.61-.34,2.19-.95.58-.6.9-1.41.88-2.21v-.02s0-.02,0-.02c0-.03,0-.05,0-.08,0-.02,0-.04,0-.06v-.07s-.02-.08-.02-.12l.03-.44h0v-.02s.02-.07.02-.07c.03-.11.05-.2.08-.27.02-.04.03-.08.05-.12.03-.08.07-.15.12-.23h0s.04-.07.06-.1c.08-.12.16-.22.24-.3.4-.4.93-.62,1.5-.62s1.1.22,1.5.62c.82.82.82,2.17,0,2.99-.08.08-.18.16-.3.24-.03.02-.06.04-.09.06h-.02c-.08.06-.15.1-.23.13-.04.02-.08.04-.12.05-.08.03-.16.05-.26.08-.02,0-.04.01-.06.02-.01,0-.02,0-.03,0l-.47.03c-.06,0-.12-.01-.19-.02h-.03s-.04,0-.06,0c0,0-.02,0-.02,0h-.02s-.02,0-.02,0c-.04,0-.07,0-.1,0-.81,0-1.61.34-2.19.95-.58.6-.9,1.41-.88,2.22v.02s0,.02,0,.02c0,.02,0,.05,0,.07,0,.02,0,.05,0,.07,0,.02,0,.04,0,.07,0,.04,0,.07,0,.11l-.03.46s0,.02-.01.04v.04c-.04.1-.06.19-.09.27-.02.04-.03.08-.05.12-.03.08-.07.15-.12.23-.02.04-.04.07-.06.1-.09.13-.16.22-.24.3-.4.4-.93.62-1.49.62h0Z"/>
    </g>
  </g>
</svg>